<?xml version="1.0" encoding="UTF-8" standalone="no"?>
<!-- Created with Inkscape (http://www.inkscape.org/) -->

<svg
   width="92.057564mm"
   height="92.057564mm"
   viewBox="0 0 92.057563 92.057564"
   version="1.1"
   id="svg1"
   inkscape:version="1.3 (0e150ed6c4, 2023-07-21)"
   sodipodi:docname="favicon.svg"
   xmlns:inkscape="http://www.inkscape.org/namespaces/inkscape"
   xmlns:sodipodi="http://sodipodi.sourceforge.net/DTD/sodipodi-0.dtd"
   xmlns="http://www.w3.org/2000/svg"
   xmlns:svg="http://www.w3.org/2000/svg">
  <sodipodi:namedview
     id="namedview1"
     pagecolor="#ffffff"
     bordercolor="#000000"
     borderopacity="0.25"
     inkscape:showpageshadow="2"
     inkscape:pageopacity="0.0"
     inkscape:pagecheckerboard="0"
     inkscape:deskcolor="#d1d1d1"
     inkscape:document-units="mm"
     inkscape:zoom="0.51717104"
     inkscape:cx="281.33826"
     inkscape:cy="188.52564"
     inkscape:window-width="1920"
     inkscape:window-height="1017"
     inkscape:window-x="-8"
     inkscape:window-y="-8"
     inkscape:window-maximized="1"
     inkscape:current-layer="layer1" />
  <defs
     id="defs1" />
  <g
     inkscape:label="Layer 1"
     inkscape:groupmode="layer"
     id="layer1"
     transform="translate(-7.143755,-83.819145)">
    <rect
       style="fill:#ff0000;stroke-width:0.283438;stroke-linecap:square"
       id="rect1"
       width="92.057564"
       height="92.057564"
       x="7.143755"
       y="83.819145" />
    <path
       style="fill:#f9f9f9;stroke-width:0.462288"
       d="m 57.146129,169.15264 c -1.750351,-2.04732 -1.750351,-2.04732 -5.463434,-0.67826 -2.042187,0.75297 -3.936841,1.36906 -4.210315,1.36906 -0.344223,0 -0.384307,-1.17346 -0.13028,-3.81389 0.597614,-6.2116 0.574383,-6.54646 -0.465138,-6.70963 -3.242231,-0.50895 -3.138673,-0.33567 -1.797738,-3.00799 0.6672,-1.32961 2.512007,-4.18573 4.099613,-6.34693 3.345524,-4.55427 4.608142,-6.47205 4.261035,-6.47205 -0.135625,0 -2.499889,0.70583 -5.25391,1.5685 -3.724513,1.16665 -6.073193,1.61078 -9.167919,1.73358 -2.602838,0.10329 -4.13594,-0.008 -4.094771,-0.29718 0.03619,-0.25427 0.210503,-1.34644 0.38735,-2.42703 0.321522,-1.96474 0.321522,-1.96474 -3.301841,-1.92571 -1.992868,0.0214 -4.871561,0.20021 -6.397096,0.39722 -1.525561,0.197 -2.828475,0.31541 -2.895388,0.2631 -0.06691,-0.0523 0.193146,-0.84847 0.57785,-1.76925 0.919136,-2.19974 0.887042,-2.50658 -0.301519,-2.88382 -0.550571,-0.17473 -2.295102,-1.20367 -3.876728,-2.2865 -1.581653,-1.08284 -3.159469,-2.08267 -3.506285,-2.22187 -0.463973,-0.18621 -0.325252,-0.50366 0.525145,-1.20152 0.94615,-0.7765 1.784377,-0.94351 4.62288,-0.9212 3.377009,0.0265 3.431116,0.0449 2.080313,0.70548 -1.198775,0.58624 -1.230128,0.6436 -0.231167,0.42302 0.635662,-0.14037 2.663957,-0.38897 4.507336,-0.55245 3.771,-0.33446 4.170389,0.0597 2.374291,2.34301 -0.537501,0.68332 -0.901223,1.31845 -0.808275,1.4114 0.287496,0.28749 1.540563,-0.84297 2.585005,-2.33207 0.996633,-1.42097 0.996633,-1.42097 5.0682,-1.21578 2.23938,0.11284 4.156048,0.28199 4.259289,0.37589 0.10324,0.0939 -0.452226,1.20018 -1.234361,2.4584 -1.82581,2.93709 -0.846323,2.58943 1.277805,-0.45357 1.618007,-2.31794 1.618007,-2.31794 5.778606,-2.02912 2.288328,0.15886 4.231587,0.35827 4.31837,0.44313 0.875189,0.85592 -2.974366,5.42324 -6.451652,7.6546 -3.432784,2.20282 -2.312485,2.22727 1.385675,0.0302 2.06973,-1.22959 4.007353,-2.88036 5.447189,-4.64065 1.229095,-1.50271 2.650808,-2.85317 3.15931,-3.00104 0.508529,-0.14785 3.264932,-0.27168 6.125342,-0.27514 5.606997,-0.007 5.89661,0.14478 4.428543,2.31785 -0.424682,0.62865 -1.898491,2.44319 -3.275092,4.03231 -1.376627,1.58914 -2.348521,2.88933 -2.15982,2.88933 1.278917,0 7.676012,-6.32995 8.733287,-8.64161 0.125783,-0.27501 12.363583,-1.12406 12.612608,-0.87503 0.886487,0.88648 -6.775899,10.89255 -11.587162,15.13125 -7.699507,6.78331 -14.270937,13.16686 -15.635393,15.18838 -1.266481,1.87638 -1.048941,1.73612 2.219378,-1.43078 1.992921,-1.93112 6.285653,-5.75205 9.539367,-8.49096 3.861435,-3.25048 7.553907,-6.92243 10.632651,-10.57354 2.594213,-3.07652 5.095478,-6.01655 5.55834,-6.53344 0.816848,-0.91218 0.834232,-0.72027 0.591714,6.53513 -0.283686,8.48596 0.20283,11.15475 2.496265,13.69391 1.339797,1.48336 1.339797,1.48336 0.171053,-0.89842 -1.966727,-4.00807 -2.312035,-7.9148 -1.372923,-15.53303 1.073044,-8.70437 0.873813,-8.20451 3.269959,-8.20451 1.7009,0 1.972918,0.12596 1.789139,0.8287 -0.237649,0.90879 2.715498,5.6353 4.66336,7.46368 1.200547,1.12691 1.200547,1.12691 -0.285168,2.6598 -1.409911,1.45466 -1.456504,1.61372 -0.913024,3.11672 0.484638,1.34016 0.434261,2.13997 -0.327395,5.19911 -0.495062,1.9884 -1.039389,5.40462 -1.209649,7.59161 -0.309536,3.97632 -0.309536,3.97632 -4.439205,2.481 -3.362616,-1.21756 -4.467384,-1.87026 -5.94786,-3.51404 -1.818217,-2.01872 -1.818217,-2.01872 -5.75183,2.00171 -2.163471,2.21123 -4.344352,4.82552 -4.846346,5.80953 -1.469258,2.87997 -2.075392,3.13582 -2.972462,1.25463 -0.938159,-1.96739 -1.423405,-2.01951 -2.163656,-0.23241 -0.55253,1.33398 -4.243388,5.11223 -4.964086,5.08164 -0.196374,-0.008 -1.144694,-0.93646 -2.10738,-2.0625 z m -39.33391,-41.59692 c 0.317949,-0.82852 -1.174777,-3.36611 -3.836644,-6.52219 -1.981915,-2.34987 -1.981915,-2.34987 -0.604811,-3.66925 1.50876,-1.44547 1.661954,-2.08967 0.818197,-3.44074 -0.451643,-0.72321 -0.3615,-1.72001 0.469742,-5.19446 0.605155,-2.52944 1.025578,-5.75157 1.021212,-7.82654 -0.0074,-3.526972 -0.0074,-3.526972 4.268708,-1.988442 3.526843,1.268912 4.57409,1.880842 5.976144,3.491912 1.699948,1.95342 1.699948,1.95342 3.323802,0.71485 2.043615,-1.55874 6.844347,-6.935442 7.458048,-8.352814 0.559091,-1.291272 1.602158,-2.589159 2.080816,-2.589159 0.192272,0 0.609944,0.628544 0.928158,1.396788 0.850582,2.053453 1.246584,2.069333 2.256128,0.09043 0.897097,-1.75842 4.272016,-5.185542 5.106564,-5.185542 0.236406,0 0.550228,0.379439 0.697416,0.843201 0.147187,0.463735 0.873866,1.423987 1.614831,2.133864 1.347206,1.290717 1.347206,1.290717 5.119344,-0.149754 2.074703,-0.792242 3.889771,-1.440444 4.033546,-1.440444 0.219657,0 -0.09713,6.480918 -0.461724,9.445178 -0.0857,0.696862 0.290062,0.978352 1.711933,1.282382 1.001924,0.21426 1.900582,0.46842 1.996969,0.56481 0.383487,0.38349 -2.068433,4.46601 -5.73487,9.54879 -2.124339,2.94494 -3.86244,5.47153 -3.86244,5.61464 0,0.14311 2.165985,-0.44217 4.8133,-1.30061 2.647315,-0.85844 6.02779,-1.67564 7.512182,-1.81602 1.484392,-0.14039 3.606033,-0.35156 4.714743,-0.4693 2.015834,-0.21402 2.015834,-0.21402 1.708917,1.51773 -0.168778,0.95245 -0.423916,2.12762 -0.566976,2.61147 -0.249502,0.84386 0.0061,0.86918 6.265545,0.6214 3.589099,-0.14208 6.525657,-0.19931 6.525657,-0.12719 0,0.0721 -0.31205,0.87797 -0.693446,1.79078 -0.895536,2.14331 -0.90596,2.09368 0.556789,2.6498 0.687625,0.26147 2.768811,1.43733 4.624863,2.61308 3.374628,2.13776 3.374628,2.13776 2.101348,2.97736 -0.94242,0.62145 -2.114074,0.8306 -4.509268,0.80494 -3.204289,-0.0343 -3.221302,-0.0411 -1.733576,-0.69173 0.826347,-0.36136 1.502436,-0.72932 1.502436,-0.81769 0,-0.0883 -1.50823,0.10935 -3.351609,0.43931 -6.291633,1.1262 -6.835219,0.86122 -4.694899,-2.28856 1.076696,-1.58451 1.102254,-1.71297 0.249952,-1.25683 -0.522155,0.27943 -1.502569,1.23338 -2.178738,2.11987 -1.229386,1.61182 -1.229386,1.61182 -5.335111,1.61182 -4.340781,0 -4.745911,-0.24345 -3.483187,-2.09302 0.342398,-0.50154 0.992902,-1.53596 1.445551,-2.29875 0.720778,-1.2146 0.600313,-1.15721 -0.969989,0.46231 -0.986155,1.01703 -2.104734,2.30531 -2.485707,2.86287 -0.650663,0.95221 -0.938186,0.99737 -4.737735,0.74385 -3.40196,-0.22699 -4.045029,-0.39548 -4.045029,-1.05995 0,-1.51855 2.713037,-4.51543 6.081315,-6.71759 4.28797,-2.80341 4.786921,-3.2721 2.47105,-2.32108 -3.352483,1.37665 -7.53999,4.44355 -9.453139,6.92333 -1.874044,2.42908 -1.897751,2.44207 -4.998403,2.73491 -1.713494,0.16182 -4.415631,0.29573 -6.004745,0.29753 -3.796532,0.004 -3.783092,-0.5711 0.122899,-5.2692 3.652705,-4.39344 3.83032,-4.66638 2.611861,-4.01429 -1.553554,0.83143 -6.437789,5.53106 -7.449317,7.16777 -0.933053,1.50974 -0.933053,1.50974 -7.262601,2.04164 -3.481255,0.29255 -6.405589,0.45587 -6.498511,0.36292 -0.09292,-0.0929 1.121331,-2.0979 2.698327,-4.45555 3.147483,-4.70554 6.053376,-7.76984 16.124052,-17.003 6.200114,-5.684472 8.462592,-8.115722 9.765374,-10.493805 0.278606,-0.508502 -0.825315,0.427623 -2.453137,2.080313 -1.627796,1.65267 -5.96908,5.534212 -9.647264,8.625632 -4.9775,4.18344 -8.031692,7.22749 -11.943583,11.90395 -2.890784,3.45575 -5.36321,6.28317 -5.494258,6.28317 -0.131074,0 -0.128481,-3.26774 0.0058,-7.26163 0.271648,-8.08294 -0.160073,-10.58047 -2.26052,-13.07668 -1.360753,-1.61719 -1.989297,-1.56708 -0.916094,0.0731 1.08294,1.65499 2.140082,6.2757 2.146671,9.38299 0.0032,1.5357 -0.347398,5.54858 -0.779251,8.91752 -0.785204,6.12532 -0.785204,6.12532 -2.765161,6.12532 -1.554876,0 -1.923811,-0.14635 -1.718363,-0.6817 z"
       id="path1335"
       sodipodi:nodetypes="ssssssssssssssssssssssssssssssssssssssssssssssssssssssssssssssssssssssssssssssssssssssssssssssssssssssssssssssssssssssssscssssssssssssssssssss" />
  </g>
</svg>
