<?xml version="1.0" encoding="UTF-8" standalone="no"?>
<!-- Created with Inkscape (http://www.inkscape.org/) -->

<svg
   width="191.17668mm"
   height="85.747971mm"
   viewBox="0 0 191.17668 85.747971"
   version="1.1"
   id="svg1"
   xmlns="http://www.w3.org/2000/svg"
   xmlns:svg="http://www.w3.org/2000/svg">
  <defs
     id="defs1" />
  <g
     id="layer1"
     transform="translate(-7.1437548,-89.958322)">
    <path
       style="fill:#f9f9f9;stroke-width:0.462288"
       d="m 51.886611,173.64365 c -1.750351,-2.04732 -1.750351,-2.04732 -5.463434,-0.67826 -2.042187,0.75297 -3.936841,1.36906 -4.210315,1.36906 -0.344223,0 -0.384307,-1.17346 -0.13028,-3.81389 0.597614,-6.2116 0.574383,-6.54646 -0.465138,-6.70963 -3.242231,-0.50895 -3.138673,-0.33567 -1.797738,-3.00799 0.6672,-1.32961 2.512007,-4.18573 4.099613,-6.34693 3.345524,-4.55427 4.608142,-6.47205 4.261035,-6.47205 -0.135625,0 -2.499889,0.70583 -5.25391,1.5685 -3.724513,1.16665 -6.073193,1.61078 -9.167919,1.73358 -2.602838,0.10329 -4.13594,-0.008 -4.094771,-0.29718 0.03619,-0.25427 0.210503,-1.34644 0.38735,-2.42703 0.321522,-1.96474 0.321522,-1.96474 -3.301841,-1.92571 -1.992868,0.0214 -4.871561,0.20021 -6.397096,0.39722 -1.525561,0.197 -2.828475,0.31541 -2.895388,0.2631 -0.06691,-0.0523 0.193146,-0.84847 0.57785,-1.76925 0.919136,-2.19974 0.887042,-2.50658 -0.301519,-2.88382 -0.550571,-0.17473 -2.295102,-1.20367 -3.876728,-2.2865 -1.581653,-1.08284 -3.159469,-2.08267 -3.506285,-2.22187 -0.463973,-0.18621 -0.325252,-0.50366 0.525145,-1.20152 0.94615,-0.7765 1.784377,-0.94351 4.62288,-0.9212 3.377009,0.0265 3.431116,0.0449 2.080313,0.70548 -1.198775,0.58624 -1.230128,0.6436 -0.231167,0.42302 0.635662,-0.14037 2.663957,-0.38897 4.507336,-0.55245 3.771,-0.33446 4.170389,0.0597 2.374291,2.34301 -0.537501,0.68332 -0.901223,1.31845 -0.808275,1.4114 0.287496,0.28749 1.540563,-0.84297 2.585005,-2.33207 0.996633,-1.42097 0.996633,-1.42097 5.0682,-1.21578 2.23938,0.11284 4.156048,0.28199 4.259289,0.37589 0.10324,0.0939 -0.452226,1.20018 -1.234361,2.4584 -1.82581,2.93709 -0.846323,2.58943 1.277805,-0.45357 1.618007,-2.31794 1.618007,-2.31794 5.778606,-2.02912 2.288328,0.15886 4.231587,0.35827 4.31837,0.44313 0.875189,0.85592 -2.974366,5.42324 -6.451652,7.6546 -3.432784,2.20282 -2.312485,2.22727 1.385675,0.0302 2.06973,-1.22959 4.007353,-2.88036 5.447189,-4.64065 1.229095,-1.50271 2.650808,-2.85317 3.15931,-3.00104 0.508529,-0.14785 3.264932,-0.27168 6.125342,-0.27514 5.606997,-0.007 5.89661,0.14478 4.428543,2.31785 -0.424682,0.62865 -1.898491,2.44319 -3.275092,4.03231 -1.376627,1.58914 -2.348521,2.88933 -2.15982,2.88933 1.278917,0 7.676012,-6.32995 8.733287,-8.64161 0.125783,-0.27501 12.363583,-1.12406 12.612608,-0.87503 0.886487,0.88648 -6.775899,10.89255 -11.587162,15.13125 -7.699507,6.78331 -14.270937,13.16686 -15.635393,15.18838 -1.266481,1.87638 -1.048941,1.73612 2.219378,-1.43078 1.992921,-1.93112 6.285653,-5.75205 9.539367,-8.49096 3.861435,-3.25048 7.553907,-6.92243 10.632651,-10.57354 2.594213,-3.07652 5.095478,-6.01655 5.55834,-6.53344 0.816848,-0.91218 0.834232,-0.72027 0.591714,6.53513 -0.283686,8.48596 0.20283,11.15475 2.496265,13.69391 1.339797,1.48336 1.339797,1.48336 0.171053,-0.89842 -1.966727,-4.00807 -2.312035,-7.9148 -1.372923,-15.53303 1.073044,-8.70437 0.873813,-8.20451 3.269959,-8.20451 1.7009,0 1.972918,0.12596 1.789139,0.8287 -0.237649,0.90879 2.715498,5.6353 4.66336,7.46368 1.200547,1.12691 1.200547,1.12691 -0.285168,2.6598 -1.409911,1.45466 -1.456504,1.61372 -0.913024,3.11672 0.484638,1.34016 0.434261,2.13997 -0.327395,5.19911 -0.495062,1.9884 -1.039389,5.40462 -1.209649,7.59161 -0.309536,3.97632 -0.309536,3.97632 -4.439205,2.481 -3.362616,-1.21756 -4.467384,-1.87026 -5.94786,-3.51404 -1.818217,-2.01872 -1.818217,-2.01872 -5.75183,2.00171 -2.163471,2.21123 -4.344352,4.82552 -4.846346,5.80953 -1.469258,2.87997 -2.075392,3.13582 -2.972462,1.25463 -0.938159,-1.96739 -1.423405,-2.01951 -2.163656,-0.23241 -0.55253,1.33398 -4.243388,5.11223 -4.964086,5.08164 -0.196374,-0.008 -1.144694,-0.93646 -2.10738,-2.0625 z m -39.33391,-41.59692 c 0.317949,-0.82852 -1.174777,-3.36611 -3.8366438,-6.52219 -1.9819144,-2.34987 -1.9819144,-2.34987 -0.6048111,-3.66925 1.50876,-1.44547 1.6619538,-2.08967 0.8181975,-3.44074 -0.4516437,-0.72321 -0.3615002,-1.72001 0.4697413,-5.19446 0.6051551,-2.52944 1.0255781,-5.75157 1.0212121,-7.82654 -0.0074,-3.52697 -0.0074,-3.52697 4.268708,-1.98844 3.526843,1.26891 4.57409,1.88084 5.976144,3.49191 1.699948,1.95342 1.699948,1.95342 3.323802,0.71485 2.043615,-1.55874 6.844347,-6.93544 7.458048,-8.352812 0.559091,-1.291272 1.602158,-2.589159 2.080816,-2.589159 0.192272,0 0.609944,0.628544 0.928158,1.396788 0.850582,2.053453 1.246584,2.069333 2.256128,0.09043 0.897097,-1.75842 4.272016,-5.185542 5.106564,-5.185542 0.236406,0 0.550228,0.379439 0.697416,0.843201 0.147187,0.463735 0.873866,1.423987 1.614831,2.133864 1.347206,1.290717 1.347206,1.290717 5.119344,-0.149754 2.074703,-0.792242 3.889771,-1.440444 4.033546,-1.440444 0.219657,0 -0.09713,6.480918 -0.461724,9.445178 -0.0857,0.69686 0.290062,0.97835 1.711933,1.28238 1.001924,0.21426 1.900582,0.46842 1.996969,0.56481 0.383487,0.38349 -2.068433,4.46601 -5.73487,9.54879 -2.124339,2.94494 -3.86244,5.47153 -3.86244,5.61464 0,0.14311 2.165985,-0.44217 4.8133,-1.30061 2.647315,-0.85844 6.02779,-1.67564 7.512182,-1.81602 1.484392,-0.14039 3.606033,-0.35156 4.714743,-0.4693 2.015834,-0.21402 2.015834,-0.21402 1.708917,1.51773 -0.168778,0.95245 -0.423916,2.12762 -0.566976,2.61147 -0.249502,0.84386 0.0061,0.86918 6.265545,0.6214 3.589099,-0.14208 6.525657,-0.19931 6.525657,-0.12719 0,0.0721 -0.31205,0.87797 -0.693446,1.79078 -0.895536,2.14331 -0.90596,2.09368 0.556789,2.6498 0.687625,0.26147 2.768811,1.43733 4.624863,2.61308 3.374628,2.13776 3.374628,2.13776 2.101348,2.97736 -0.94242,0.62145 -2.114074,0.8306 -4.509268,0.80494 -3.204289,-0.0343 -3.221302,-0.0411 -1.733576,-0.69173 0.826347,-0.36136 1.502436,-0.72932 1.502436,-0.81769 0,-0.0883 -1.50823,0.10935 -3.351609,0.43931 -6.291633,1.1262 -6.835219,0.86122 -4.694899,-2.28856 1.076696,-1.58451 1.102254,-1.71297 0.249952,-1.25683 -0.522155,0.27943 -1.502569,1.23338 -2.178738,2.11987 -1.229386,1.61182 -1.229386,1.61182 -5.335111,1.61182 -4.340781,0 -4.745911,-0.24345 -3.483187,-2.09302 0.342398,-0.50154 0.992902,-1.53596 1.445551,-2.29875 0.720778,-1.2146 0.600313,-1.15721 -0.969989,0.46231 -0.986155,1.01703 -2.104734,2.30531 -2.485707,2.86287 -0.650663,0.95221 -0.938186,0.99737 -4.737735,0.74385 -3.40196,-0.22699 -4.045029,-0.39548 -4.045029,-1.05995 0,-1.51855 2.713037,-4.51543 6.081315,-6.71759 4.28797,-2.80341 4.786921,-3.2721 2.47105,-2.32108 -3.352483,1.37665 -7.53999,4.44355 -9.453139,6.92333 -1.874044,2.42908 -1.897751,2.44207 -4.998403,2.73491 -1.713494,0.16182 -4.415631,0.29573 -6.004745,0.29753 -3.796532,0.004 -3.783092,-0.5711 0.122899,-5.2692 3.652705,-4.39344 3.83032,-4.66638 2.611861,-4.01429 -1.553554,0.83143 -6.437789,5.53106 -7.449317,7.16777 -0.933053,1.50974 -0.933053,1.50974 -7.262601,2.04164 -3.481255,0.29255 -6.405589,0.45587 -6.498511,0.36292 -0.09292,-0.0929 1.121331,-2.0979 2.698327,-4.45555 3.147483,-4.70554 6.053376,-7.76984 16.124052,-17.003 6.200114,-5.68447 8.462592,-8.11572 9.765374,-10.493803 0.278606,-0.508502 -0.825315,0.427623 -2.453137,2.080313 -1.627796,1.65267 -5.96908,5.53421 -9.647264,8.62563 -4.9775,4.18344 -8.031692,7.22749 -11.943583,11.90395 -2.890784,3.45575 -5.36321,6.28317 -5.494258,6.28317 -0.131074,0 -0.128481,-3.26774 0.0058,-7.26163 0.271648,-8.08294 -0.160073,-10.58047 -2.26052,-13.07668 -1.360753,-1.61719 -1.989297,-1.56708 -0.916094,0.0731 1.08294,1.65499 2.140082,6.2757 2.146671,9.38299 0.0032,1.5357 -0.347398,5.54858 -0.779251,8.91752 -0.785204,6.12532 -0.785204,6.12532 -2.765161,6.12532 -1.554876,0 -1.923811,-0.14635 -1.718363,-0.6817 z"
       id="path1335" />
    <rect
       style="fill:#f9f9f9;fill-opacity:1;stroke:none;stroke-width:0.373346;stroke-linecap:square"
       id="rect1335"
       width="186.23224"
       height="0.90368742"
       x="12.0882"
       y="134.33891" />
    <path
       style="font-size:113.333px;font-family:'Baskerville Old Face';-inkscape-font-specification:'Baskerville Old Face';letter-spacing:0px;white-space:pre;fill:#f9f9f9;stroke-width:0.762442;stroke-linecap:square"
       d="m 124.24326,90.765642 0.32417,12.888238 h -0.62133 q -0.29715,-0.83615 -0.45923,-1.26864 -0.94548,-2.767944 -1.53979,-4.123081 -1.05354,-2.421955 -3.05256,-4.440244 -1.51277,-1.528139 -3.1336,-2.220124 -1.62084,-0.691986 -3.64688,-0.691986 -3.05256,0 -5.29471,1.412805 -1.972,1.239808 -3.67388,3.575262 -1.70187,2.30662 -2.78242,5.276388 -1.53979,4.18076 -1.53979,9.51481 0,4.52674 1.053541,8.15967 1.053539,3.63293 3.079579,6.08371 3.72791,4.55558 9.88706,4.55558 3.07958,0 5.53784,-1.12448 2.45825,-1.15331 3.80895,-3.22927 1.5668,-2.39312 2.26916,-6.45853 l 0.62132,0.11533 q -0.51326,4.55557 -2.32319,7.23702 -1.72889,2.56611 -4.78145,3.92125 -3.02555,1.35514 -7.0236,1.35514 -3.72791,0 -7.13165,-1.18214 -5.42978,-1.90296 -8.482344,-6.8622 -3.052565,-4.98806 -3.052565,-11.87909 0,-5.27639 1.782916,-9.71664 1.782912,-4.469073 4.970545,-7.179353 2.458258,-2.075957 5.861998,-3.286936 3.43076,-1.239809 6.86152,-1.239809 3.26867,0 6.91554,1.326309 l 2.21513,0.778487 q 0.64834,0.259492 1.13458,0.259492 0.67535,0 1.10757,-0.60549 0.1891,-0.288326 0.45924,-0.951478 z m 21.07079,0.20183 v 0.663152 q -1.53979,0.0865 -2.51229,0.461322 -0.94548,0.374826 -1.70187,1.21098 -1.05354,1.153307 -1.29667,3.200435 -0.16208,1.528134 -0.16208,3.517599 v 21.24973 q 0,2.39312 0.21611,3.77709 0.21612,1.38397 0.70236,2.22013 0.70237,1.15331 1.80993,1.72996 1.10757,0.54782 2.94451,0.66315 v 0.66316 h -17.26184 v -0.66316 q 1.5668,-0.0865 2.51229,-0.46132 0.97249,-0.40366 1.70187,-1.21097 0.86444,-0.92265 1.16159,-2.33546 0.29715,-1.4128 0.29715,-4.38258 v -21.24973 q 0,-2.969781 -0.29715,-4.382586 -0.29715,-1.412804 -1.16159,-2.335448 -0.72938,-0.836154 -1.70187,-1.21098 -0.9725,-0.374826 -2.51229,-0.461322 v -0.663152 z m 17.23483,0.893816 q -1.70188,0 -3.64687,0.115329 -4.16013,0.230664 -6.21318,1.124479 -2.02604,0.893815 -3.34972,3.085101 -1.21562,2.018295 -1.86396,5.478223 l -0.62131,-0.0577 0.48625,-10.639288 h 36.54971 l 0.48625,10.639288 -0.62131,0.0577 q -0.72938,-4.007751 -2.29618,-6.054874 -1.53979,-2.075962 -4.51131,-2.969777 -2.51229,-0.778481 -8.50936,-0.778481 v 29.409402 q 0,2.94095 0.29715,4.38258 0.32417,1.41281 1.1616,2.33546 0.75638,0.83615 1.70187,1.21097 0.9725,0.37483 2.51229,0.46132 v 0.66316 h -17.26184 v -0.66316 q 1.5668,-0.0865 2.51228,-0.46132 0.9725,-0.37482 1.72889,-1.21097 0.83743,-0.92265 1.13458,-2.33546 0.32417,-1.4128 0.32417,-4.38258 z"
       id="text1335"
       aria-label="CIT" />
    <path
       style="font-size:15.8886px;font-family:'Baskerville Old Face';-inkscape-font-specification:'Baskerville Old Face';text-align:center;letter-spacing:0px;text-anchor:middle;white-space:pre;fill:#f9f9f9;stroke-width:0.933626;stroke-linecap:square"
       d="m 97.805373,138.79839 0.05639,2.18368 H 97.75369 q -0.05166,-0.14167 -0.07988,-0.21495 -0.164453,-0.46897 -0.267826,-0.69858 -0.183247,-0.41036 -0.530952,-0.75232 -0.263132,-0.25892 -0.545052,-0.37617 -0.281925,-0.11724 -0.63433,-0.11724 -0.530958,0 -0.920951,0.23937 -0.343005,0.21007 -0.639024,0.60577 -0.296019,0.39082 -0.483971,0.89399 -0.267826,0.70836 -0.267826,1.61213 0,0.76697 0.183252,1.38251 0.183253,0.61553 0.535652,1.03078 0.648424,0.77186 1.719734,0.77186 0.535651,0 0.963236,-0.19052 0.427586,-0.19541 0.662518,-0.54714 0.272526,-0.40548 0.394698,-1.09429 l 0.108067,0.0195 q -0.08927,0.77186 -0.404092,1.22618 -0.300712,0.43478 -0.83167,0.66439 -0.526258,0.2296 -1.221669,0.2296 -0.648425,0 -1.240463,-0.20029 -0.944443,-0.32242 -1.475395,-1.16268 -0.530958,-0.84514 -0.530958,-2.01271 0,-0.89399 0.310119,-1.64631 0.310112,-0.75721 0.864564,-1.21642 0.427585,-0.35173 1.019623,-0.55691 0.596738,-0.21007 1.193475,-0.21007 0.568545,0 1.20287,0.22472 l 0.385298,0.1319 q 0.112767,0.0439 0.197346,0.0439 0.117467,0 0.192646,-0.10258 0.03289,-0.0489 0.07988,-0.16121 z m 7.203137,6.7025 h -3.08706 v -0.11236 q 0.41819,-0.0391 0.58265,-0.14655 0.29132,-0.19053 0.29132,-0.52761 0,-0.20029 -0.13157,-0.53737 l -0.0799,-0.20518 -0.45107,-1.15291 h -2.06744 l -0.244335,0.67416 -0.117466,0.30288 q -0.211446,0.53738 -0.211446,0.84514 0,0.18076 0.07518,0.33708 0.07988,0.15633 0.21144,0.25403 0.183252,0.13191 0.469877,0.15633 v 0.11236 h -2.105032 v -0.11236 q 0.249033,-0.0147 0.436985,-0.12701 0.187946,-0.11237 0.366499,-0.36151 0.150359,-0.20029 0.291319,-0.51295 0.14566,-0.31754 0.380599,-0.94772 l 1.71973,-4.60676 h 0.26783 l 2.04394,5.13435 q 0.23024,0.58135 0.3665,0.83049 0.13626,0.24915 0.29602,0.37616 0.11277,0.0879 0.25843,0.13679 0.14566,0.0439 0.43698,0.0782 z m -2.95079,-2.88227 -0.98674,-2.53054 -0.93034,2.53054 z m 4.26174,-2.90182 v 4.25013 q 0,0.50318 0.0517,0.74256 0.0564,0.23937 0.20204,0.3957 0.13156,0.14167 0.29602,0.20518 0.16916,0.0635 0.43698,0.0782 v 0.11236 h -2.16611 v -0.11236 q 0.26783,-0.0147 0.43228,-0.0782 0.16916,-0.0635 0.30072,-0.20518 0.14566,-0.15633 0.19735,-0.3957 0.0564,-0.24426 0.0564,-0.74256 v -3.60528 q 0,-0.49341 -0.0564,-0.73278 -0.0517,-0.24426 -0.19735,-0.40059 -0.12686,-0.14167 -0.29602,-0.20518 -0.16445,-0.0635 -0.43698,-0.0782 v -0.11236 h 1.80901 l 3.81536,5.06108 v -3.52712 q 0,-0.50318 -0.0564,-0.74255 -0.0517,-0.23938 -0.19735,-0.39571 -0.13156,-0.14167 -0.30072,-0.20518 -0.16445,-0.0635 -0.43228,-0.0782 v -0.11236 h 2.16611 v 0.11236 q -0.46987,0 -0.733,0.28334 -0.14566,0.15633 -0.20204,0.40059 -0.0517,0.23937 -0.0517,0.73278 v 5.13924 h -0.21144 z m 12.63016,5.78409 h -3.08706 v -0.11236 q 0.41818,-0.0391 0.58264,-0.14655 0.29132,-0.19053 0.29132,-0.52761 0,-0.20029 -0.13157,-0.53737 l -0.0799,-0.20518 -0.45107,-1.15291 h -2.06744 l -0.24433,0.67416 -0.11747,0.30288 q -0.21144,0.53738 -0.21144,0.84514 0,0.18076 0.0752,0.33708 0.0799,0.15633 0.21144,0.25403 0.18325,0.13191 0.46988,0.15633 v 0.11236 h -2.10504 v -0.11236 q 0.24904,-0.0147 0.43699,-0.12701 0.18794,-0.11237 0.3665,-0.36151 0.15036,-0.20029 0.29132,-0.51295 0.14566,-0.31754 0.38059,-0.94772 l 1.71974,-4.60676 h 0.26782 l 2.04394,5.13435 q 0.23024,0.58135 0.36651,0.83049 0.13626,0.24915 0.29602,0.37616 0.11276,0.0879 0.25842,0.13679 0.14566,0.0439 0.43699,0.0782 z m -2.9508,-2.88227 -0.98673,-2.53054 -0.93035,2.53054 z m 3.08236,2.76991 q 0.27253,-0.0147 0.43698,-0.0782 0.16446,-0.0635 0.29602,-0.20518 0.14566,-0.15633 0.19735,-0.3957 0.0564,-0.24426 0.0564,-0.74256 v -3.60039 q 0,-0.53738 -0.0658,-0.78652 -0.0611,-0.24915 -0.24433,-0.41036 -0.23024,-0.20029 -0.67662,-0.22472 v -0.11236 h 2.5843 q 0.85986,0 1.0948,0.0195 0.99143,0.0782 1.68214,0.58622 0.65782,0.48364 1.02432,1.27016 0.3665,0.78163 0.3665,1.70493 0,0.67416 -0.21144,1.27504 -0.20674,0.596 -0.57794,0.9917 -0.52156,0.55692 -1.30155,0.70836 -0.58264,0.11236 -1.18878,0.11236 h -3.47235 z m 2.01575,-6.40451 v 4.8559 q 0,0.47875 0.0517,0.7279 0.0517,0.24914 0.19265,0.42501 0.30072,0.38105 0.97734,0.38105 0.57794,0 0.98673,-0.19541 0.41348,-0.2003 0.73769,-0.64485 0.31952,-0.4299 0.48398,-0.98193 0.16915,-0.55691 0.16915,-1.18222 0,-0.6937 -0.20205,-1.31901 -0.20204,-0.6253 -0.57794,-1.09428 -0.52156,-0.64973 -1.24516,-0.8598 -0.39469,-0.11236 -1.00553,-0.11236 z m 8.41541,-0.15144 v 0.11236 q -0.26783,0.0147 -0.43698,0.0782 -0.16445,0.0635 -0.29602,0.20518 -0.18325,0.19541 -0.22554,0.54226 -0.0282,0.25892 -0.0282,0.596 v 3.60039 q 0,0.40548 0.0376,0.63997 0.0376,0.23449 0.12216,0.37616 0.12217,0.19541 0.31482,0.29311 0.19265,0.0928 0.51216,0.11236 v 0.11236 h -3.00248 v -0.11236 q 0.27252,-0.0147 0.43698,-0.0782 0.16915,-0.0684 0.29602,-0.20518 0.15036,-0.15633 0.20204,-0.3957 0.0517,-0.23938 0.0517,-0.74256 v -3.60039 q 0,-0.50318 -0.0517,-0.74255 -0.0517,-0.23938 -0.20204,-0.39571 -0.12687,-0.14167 -0.29602,-0.20518 -0.16916,-0.0635 -0.43698,-0.0782 v -0.11236 z m 7.00109,6.66831 h -3.08705 v -0.11236 q 0.41818,-0.0391 0.58263,-0.14655 0.29133,-0.19053 0.29133,-0.52761 0,-0.20029 -0.13157,-0.53737 l -0.0799,-0.20518 -0.45107,-1.15291 h -2.06744 l -0.24433,0.67416 -0.11747,0.30288 q -0.21144,0.53738 -0.21144,0.84514 0,0.18076 0.0752,0.33708 0.0799,0.15633 0.21144,0.25403 0.18325,0.13191 0.46987,0.15633 v 0.11236 h -2.10503 v -0.11236 q 0.24904,-0.0147 0.43699,-0.12701 0.18794,-0.11237 0.3665,-0.36151 0.15036,-0.20029 0.29132,-0.51295 0.14566,-0.31754 0.38059,-0.94772 l 1.71973,-4.60676 h 0.26783 l 2.04394,5.13435 q 0.23024,0.58135 0.3665,0.83049 0.13627,0.24915 0.29602,0.37616 0.11277,0.0879 0.25843,0.13679 0.14566,0.0439 0.43698,0.0782 z m -2.95079,-2.88227 -0.98673,-2.53054 -0.93035,2.53054 z m 4.26174,-2.90182 v 4.25013 q 0,0.50318 0.0517,0.74256 0.0564,0.23937 0.20205,0.3957 0.13156,0.14167 0.29602,0.20518 0.16915,0.0635 0.43698,0.0782 v 0.11236 h -2.16611 v -0.11236 q 0.26783,-0.0147 0.43228,-0.0782 0.16915,-0.0635 0.30072,-0.20518 0.14566,-0.15633 0.19734,-0.3957 0.0564,-0.24426 0.0564,-0.74256 v -3.60528 q 0,-0.49341 -0.0564,-0.73278 -0.0517,-0.24426 -0.19734,-0.40059 -0.12687,-0.14167 -0.29602,-0.20518 -0.16445,-0.0635 -0.43698,-0.0782 v -0.11236 h 1.80901 l 3.81536,5.06108 v -3.52712 q 0,-0.50318 -0.0564,-0.74255 -0.0517,-0.23938 -0.19734,-0.39571 -0.13157,-0.14167 -0.30072,-0.20518 -0.16446,-0.0635 -0.43228,-0.0782 v -0.11236 h 2.1661 v 0.11236 q -0.46987,0 -0.73299,0.28334 -0.14566,0.15633 -0.20205,0.40059 -0.0517,0.23937 -0.0517,0.73278 v 5.13924 h -0.21144 z m 11.49777,-0.88422 v 0.11236 q -0.26783,0.0147 -0.43698,0.0782 -0.16445,0.0635 -0.29602,0.20518 -0.18325,0.19541 -0.22554,0.54226 -0.0282,0.25892 -0.0282,0.596 v 3.60039 q 0,0.40548 0.0376,0.63997 0.0376,0.23449 0.12217,0.37616 0.12216,0.19541 0.31481,0.29311 0.19264,0.0928 0.51216,0.11236 v 0.11236 h -3.00249 v -0.11236 q 0.27253,-0.0147 0.43699,-0.0782 0.16915,-0.0684 0.29602,-0.20518 0.15036,-0.15633 0.20204,-0.3957 0.0517,-0.23938 0.0517,-0.74256 v -3.60039 q 0,-0.50318 -0.0517,-0.74255 -0.0517,-0.23938 -0.20204,-0.39571 -0.12687,-0.14167 -0.29602,-0.20518 -0.16915,-0.0635 -0.43699,-0.0782 v -0.11236 z m 1.63985,0.88422 v 4.25013 q 0,0.50318 0.0517,0.74256 0.0564,0.23937 0.20205,0.3957 0.13156,0.14167 0.29602,0.20518 0.16915,0.0635 0.43698,0.0782 v 0.11236 h -2.16611 v -0.11236 q 0.26783,-0.0147 0.43228,-0.0782 0.16915,-0.0635 0.30072,-0.20518 0.14566,-0.15633 0.19735,-0.3957 0.0564,-0.24426 0.0564,-0.74256 v -3.60528 q 0,-0.49341 -0.0564,-0.73278 -0.0517,-0.24426 -0.19735,-0.40059 -0.12687,-0.14167 -0.29602,-0.20518 -0.16446,-0.0635 -0.43698,-0.0782 v -0.11236 h 1.809 l 3.81537,5.06108 v -3.52712 q 0,-0.50318 -0.0564,-0.74255 -0.0517,-0.23938 -0.19734,-0.39571 -0.13157,-0.14167 -0.30072,-0.20518 -0.16445,-0.0635 -0.43229,-0.0782 v -0.11236 h 2.16612 v 0.11236 q -0.46988,0 -0.733,0.28334 -0.14567,0.15633 -0.20205,0.40059 -0.0517,0.23937 -0.0517,0.73278 v 5.13924 h -0.21145 z m 6.31978,5.76943 0.0141,-2.01758 h 0.10807 q 0.19735,0.77186 0.46987,1.21641 0.51217,0.82072 1.28746,0.82072 0.54035,0 0.89275,-0.37616 0.3524,-0.37616 0.3524,-0.95262 0,-0.24914 -0.0799,-0.50806 -0.0752,-0.25892 -0.20675,-0.44456 -0.13626,-0.19052 -0.3853,-0.36639 -0.24433,-0.17586 -0.75179,-0.44455 -0.44638,-0.23449 -0.68601,-0.3957 -0.23494,-0.16122 -0.3806,-0.32731 -0.40409,-0.45921 -0.40409,-1.11871 0,-0.40548 0.15506,-0.78164 0.15975,-0.37616 0.44168,-0.64485 0.49806,-0.47875 1.17938,-0.47875 0.22084,0 0.40879,0.0489 0.18794,0.0439 0.50276,0.18075 0.23494,0.0977 0.31951,0.12702 0.0846,0.0244 0.15036,0.0244 0.16446,0 0.22084,-0.24915 h 0.10807 l 0.0329,1.93943 h -0.10807 q -0.12687,-0.4641 -0.22084,-0.70835 -0.0893,-0.24915 -0.21614,-0.45921 -0.23024,-0.38105 -0.50746,-0.5618 -0.27723,-0.18564 -0.63903,-0.18564 -0.52626,0 -0.83167,0.37127 -0.12687,0.15144 -0.20205,0.35663 -0.0705,0.20518 -0.0705,0.41036 0,0.81582 1.01022,1.31412 l 0.66252,0.33219 q 0.7659,0.37616 1.1042,0.83049 0.3853,0.50806 0.3853,1.18222 0,0.44943 -0.17386,0.85979 -0.24433,0.57157 -0.73299,0.88423 -0.48867,0.30776 -1.15119,0.30776 -0.60614,0 -1.16529,-0.24914 -0.29132,-0.1319 -0.3477,-0.15144 -0.0564,-0.0195 -0.12687,-0.0195 -0.22553,0 -0.31011,0.23449 z m 7.28302,-6.50221 q -0.29602,0 -0.63433,0.0195 -0.7236,0.0391 -1.08071,0.19052 -0.3524,0.15144 -0.58264,0.52272 -0.21144,0.34196 -0.32421,0.92819 l -0.10807,-0.01 0.0846,-1.80264 h 6.35736 l 0.0846,1.80264 -0.10807,0.01 q -0.12686,-0.67905 -0.39939,-1.0259 -0.26783,-0.35173 -0.78469,-0.50318 -0.43697,-0.1319 -1.48009,-0.1319 v 4.98292 q 0,0.49829 0.0517,0.74255 0.0564,0.23938 0.20205,0.3957 0.13156,0.14168 0.29602,0.20518 0.16915,0.0635 0.43697,0.0782 v 0.11236 h -3.00248 v -0.11234 q 0.27253,-0.0147 0.43698,-0.0782 0.16916,-0.0635 0.30072,-0.20518 0.14566,-0.15633 0.19735,-0.3957 0.0564,-0.23938 0.0564,-0.74256 z m 7.07157,-0.15144 v 0.11236 q -0.26782,0.0147 -0.43698,0.0782 -0.16446,0.0635 -0.29602,0.20518 -0.18325,0.19541 -0.22554,0.54226 -0.0282,0.25892 -0.0282,0.596 v 3.60039 q 0,0.40548 0.0376,0.63997 0.0376,0.23449 0.12217,0.37616 0.12217,0.19541 0.31482,0.29311 0.19264,0.0928 0.51216,0.11236 v 0.11236 h -3.00249 v -0.11236 q 0.27253,-0.0147 0.43699,-0.0782 0.16915,-0.0684 0.29602,-0.20518 0.15036,-0.15633 0.20204,-0.3957 0.0517,-0.23938 0.0517,-0.74256 v -3.60039 q 0,-0.50318 -0.0517,-0.74255 -0.0517,-0.23938 -0.20204,-0.39571 -0.12687,-0.14167 -0.29602,-0.20518 -0.16916,-0.0635 -0.43699,-0.0782 v -0.11236 z m 2.99778,0.15144 q -0.29601,0 -0.63433,0.0195 -0.72359,0.0391 -1.0807,0.19052 -0.3524,0.15144 -0.58264,0.52272 -0.21144,0.34196 -0.32421,0.92819 l -0.10807,-0.01 0.0846,-1.80264 h 6.35736 l 0.0846,1.80264 -0.10807,0.01 q -0.12687,-0.67905 -0.39939,-1.0259 -0.26783,-0.35173 -0.78469,-0.50318 -0.43698,-0.1319 -1.48009,-0.1319 v 4.98292 q 0,0.49829 0.0517,0.74255 0.0564,0.23938 0.20204,0.3957 0.13157,0.14168 0.29602,0.20518 0.16916,0.0635 0.43698,0.0782 v 0.11236 h -3.00248 v -0.11234 q 0.27253,-0.0147 0.43698,-0.0782 0.16915,-0.0635 0.30072,-0.20518 0.14566,-0.15633 0.19734,-0.3957 0.0564,-0.23938 0.0564,-0.74256 z m 7.0058,-0.15144 v 0.11236 q -0.26783,0.0147 -0.43698,0.0782 -0.16916,0.0635 -0.29602,0.20518 -0.15506,0.1661 -0.20675,0.41036 -0.047,0.24426 -0.047,0.84026 v 2.76502 q 0,0.67416 0.047,0.97704 0.0517,0.29801 0.20205,0.55204 0.22554,0.38593 0.55445,0.56179 0.33361,0.17099 0.83637,0.17099 0.48867,0 0.93035,-0.15145 0.44638,-0.15632 0.7424,-0.42989 0.18324,-0.17098 0.26782,-0.37128 0.0893,-0.20029 0.11747,-0.50806 0.0188,-0.20029 0.0188,-0.94773 v -2.73083 q 0,-0.50318 -0.0564,-0.74255 -0.0517,-0.23938 -0.19735,-0.39571 -0.13157,-0.14167 -0.30072,-0.20518 -0.16445,-0.0635 -0.43228,-0.0782 v -0.11236 h 2.16611 v 0.11236 q -0.26783,0.0147 -0.43698,0.0782 -0.16446,0.0635 -0.29602,0.20518 -0.14566,0.15633 -0.20204,0.40059 -0.0517,0.23937 -0.0517,0.73767 v 3.08256 q 0,0.68393 -0.10337,1.01124 -0.0987,0.32243 -0.39939,0.59111 -0.68601,0.61554 -1.95937,0.61554 -1.32973,0 -1.95936,-0.58134 -0.40879,-0.37128 -0.48867,-0.97704 -0.0282,-0.21495 -0.0282,-0.77675 v -2.96532 q 0,-0.50318 -0.0517,-0.74255 -0.0517,-0.23938 -0.20205,-0.39571 -0.12687,-0.14167 -0.29602,-0.20518 -0.16445,-0.0635 -0.43698,-0.0782 v -0.11236 z m 6.84603,0.15144 q -0.29602,0 -0.63432,0.0195 -0.72361,0.0391 -1.08071,0.19052 -0.3524,0.15144 -0.58264,0.52272 -0.21144,0.34196 -0.32421,0.92819 l -0.10808,-0.01 0.0846,-1.80264 h 6.35737 l 0.0846,1.80264 -0.10807,0.01 q -0.12687,-0.67905 -0.39939,-1.0259 -0.26783,-0.35173 -0.78469,-0.50318 -0.43698,-0.1319 -1.4801,-0.1319 v 4.98292 q 0,0.49829 0.0517,0.74255 0.0564,0.23938 0.20204,0.3957 0.13157,0.14168 0.29602,0.20518 0.16915,0.0635 0.43698,0.0782 v 0.11236 h -3.00248 v -0.11234 q 0.27252,-0.0147 0.43698,-0.0782 0.16915,-0.0635 0.30072,-0.20518 0.14566,-0.15633 0.19735,-0.3957 0.0564,-0.23938 0.0564,-0.74256 z m 9.12022,-0.15144 0.0799,1.61212 -0.10807,0.005 q -0.0611,-0.41036 -0.20205,-0.67905 -0.14096,-0.26869 -0.40878,-0.47387 -0.22084,-0.17098 -0.52156,-0.23937 -0.30072,-0.0733 -0.79878,-0.0733 h -1.07601 v 2.93113 h 0.28192 q 0.42759,0 0.64373,-0.0586 0.21614,-0.0586 0.3524,-0.21007 0.13156,-0.14167 0.19265,-0.33219 0.0658,-0.19541 0.10807,-0.57157 l 0.10807,0.005 -0.0188,2.61848 h -0.10807 q -0.0423,-0.37616 -0.12687,-0.60577 -0.0799,-0.2296 -0.22553,-0.39082 -0.14097,-0.15632 -0.36651,-0.2296 -0.22553,-0.0733 -0.57324,-0.0733 h -0.26783 v 1.11872 q 0,0.66927 0.0329,0.97704 0.0329,0.30288 0.12687,0.50806 0.15975,0.35173 0.48396,0.51783 0.32891,0.16122 0.86457,0.16122 0.56385,0 0.94444,-0.14656 0.3806,-0.15145 0.62023,-0.4641 0.16916,-0.21006 0.27253,-0.47875 0.10807,-0.26869 0.19734,-0.70836 l 0.10808,0.005 -0.0611,1.94432 h -5.60558 v -0.11282 q 0.26783,-0.0147 0.43228,-0.0782 0.16915,-0.0635 0.30072,-0.20518 0.14566,-0.15633 0.19734,-0.3957 0.0564,-0.24426 0.0564,-0.74256 v -3.60039 q 0,-0.4983 -0.0564,-0.73767 -0.0517,-0.24426 -0.19734,-0.40059 -0.12687,-0.14167 -0.29602,-0.20518 -0.16445,-0.0635 -0.43698,-0.0782 v -0.11236 z m -93.20382,15.89078 q 0,-0.82072 0.3383,-1.5193 0.33831,-0.70347 0.98674,-1.22619 0.48396,-0.38594 1.04311,-0.59111 0.55915,-0.21006 1.12769,-0.21006 0.72361,0 1.40023,0.33219 0.67661,0.32731 1.18407,0.92819 0.82698,0.97704 0.82698,2.22277 0,0.62531 -0.21615,1.20665 -0.21614,0.58134 -0.62962,1.06009 -0.50747,0.596 -1.20288,0.9233 -0.69071,0.32731 -1.4472,0.32731 -0.7471,0 -1.42841,-0.31754 -0.68131,-0.31753 -1.17469,-0.89888 -0.38999,-0.45432 -0.60143,-1.03078 -0.20674,-0.58133 -0.20674,-1.20664 z m 1.13709,0.0733 q 0,1.41672 0.74239,2.38888 0.33362,0.43478 0.70481,0.63507 0.3759,0.19541 0.86457,0.19541 0.49336,0 0.86456,-0.19541 0.3759,-0.1954 0.71421,-0.63507 0.74239,-0.97705 0.74239,-2.40841 0,-0.78653 -0.20674,-1.48511 -0.20204,-0.70347 -0.57324,-1.19199 -0.30072,-0.40059 -0.67192,-0.58134 -0.3665,-0.18564 -0.86926,-0.18564 -0.49807,0 -0.86457,0.18076 -0.3618,0.18075 -0.67191,0.58622 -0.3712,0.48364 -0.57325,1.18711 -0.20204,0.70346 -0.20204,1.50952 z m 8.46239,-0.26868 v 1.9492 q 0,0.49829 0.0517,0.73766 0.0517,0.23449 0.19734,0.39571 0.12687,0.14167 0.29602,0.21006 0.17385,0.0635 0.44168,0.0782 v 0.11236 h -3.00248 v -0.11236 q 0.22554,0 0.42758,-0.0733 0.20205,-0.0782 0.31481,-0.20518 0.13157,-0.15144 0.18796,-0.41524 0.0564,-0.26381 0.0564,-0.7279 v -3.6004 q 0,-0.31265 -0.0329,-0.64973 -0.047,-0.4299 -0.4041,-0.63997 -0.19734,-0.11236 -0.54975,-0.1319 v -0.11236 h 4.91017 l 0.13626,1.5877 -0.10807,0.0244 q -0.11747,-0.37128 -0.21614,-0.55692 -0.22084,-0.42501 -0.62023,-0.6595 -0.23024,-0.13679 -0.53096,-0.19052 -0.30072,-0.0537 -0.82697,-0.0537 h -0.7283 v 2.88228 h 0.18794 q 0.83168,0 1.20758,-0.38594 0.16445,-0.16609 0.24903,-0.39081 0.0846,-0.2296 0.11277,-0.59599 l 0.10807,0.005 -0.0282,2.96044 h -0.11277 q -0.0517,-0.49829 -0.17855,-0.76698 -0.12217,-0.27357 -0.3759,-0.43967 -0.18795,-0.12213 -0.46517,-0.17587 -0.27253,-0.0586 -0.70481,-0.0586 z m 8.16638,-3.03372 q -0.29602,0 -0.63433,0.0195 -0.7236,0.0391 -1.0807,0.19052 -0.35241,0.15144 -0.58265,0.52272 -0.21144,0.34197 -0.3242,0.92819 l -0.10808,-0.01 0.0846,-1.80264 h 6.35737 l 0.0846,1.80264 -0.10807,0.01 q -0.12687,-0.67905 -0.3994,-1.02589 -0.26782,-0.35174 -0.78468,-0.50318 -0.43699,-0.1319 -1.4801,-0.1319 v 4.98291 q 0,0.4983 0.0517,0.74255 0.0564,0.23938 0.20204,0.39571 0.13157,0.14167 0.29602,0.20518 0.16916,0.0635 0.43699,0.0782 v 0.11236 h -3.00249 v -0.11236 q 0.27253,-0.0147 0.43698,-0.0782 0.16916,-0.0635 0.30072,-0.20518 0.14566,-0.15633 0.19735,-0.39571 0.0564,-0.23937 0.0564,-0.74255 z m 9.12022,-0.15144 0.0799,1.61212 -0.10808,0.005 q -0.0611,-0.41036 -0.20204,-0.67904 -0.14096,-0.26869 -0.40879,-0.47387 -0.22084,-0.17098 -0.52156,-0.23937 -0.30071,-0.0733 -0.79878,-0.0733 h -1.076 v 2.93113 h 0.28192 q 0.42758,0 0.64372,-0.0586 0.21615,-0.0586 0.35241,-0.21007 0.13156,-0.14167 0.19264,-0.33219 0.0658,-0.19542 0.10808,-0.57157 l 0.10807,0.005 -0.0188,2.61847 h -0.10806 q -0.0423,-0.37615 -0.12687,-0.60576 -0.0799,-0.2296 -0.22554,-0.39082 -0.14096,-0.15632 -0.3665,-0.2296 -0.22554,-0.0733 -0.57324,-0.0733 h -0.26783 v 1.11871 q 0,0.66927 0.0329,0.97704 0.0329,0.30289 0.12686,0.50807 0.15976,0.35173 0.48398,0.51783 0.3289,0.16121 0.86456,0.16121 0.56384,0 0.94444,-0.14656 0.3806,-0.15144 0.62023,-0.46409 0.16916,-0.21007 0.27253,-0.47875 0.10807,-0.26869 0.19735,-0.70836 l 0.10806,0.005 -0.0611,1.94432 h -5.60557 v -0.11237 q 0.26782,-0.0147 0.43228,-0.0782 0.16916,-0.0635 0.30072,-0.20518 0.14566,-0.15632 0.19734,-0.3957 0.0564,-0.24426 0.0564,-0.74255 v -3.6004 q 0,-0.49829 -0.0564,-0.73767 -0.0517,-0.24426 -0.19734,-0.40059 -0.12687,-0.14167 -0.29602,-0.20517 -0.16446,-0.0635 -0.43698,-0.0782 v -0.11236 z m 6.72387,-0.0342 0.0564,2.18369 h -0.10807 q -0.0517,-0.14167 -0.0799,-0.21495 -0.16445,-0.46898 -0.26782,-0.69858 -0.18325,-0.41036 -0.53096,-0.75233 -0.26313,-0.25891 -0.54505,-0.37616 -0.28192,-0.11724 -0.63433,-0.11724 -0.53095,0 -0.92095,0.23937 -0.343,0.21007 -0.63902,0.60577 -0.29602,0.39082 -0.48397,0.89399 -0.26783,0.70836 -0.26783,1.61213 0,0.76697 0.18325,1.38251 0.18325,0.61553 0.53565,1.03078 0.64843,0.77186 1.71974,0.77186 0.53565,0 0.96323,-0.19053 0.42759,-0.1954 0.66252,-0.54713 0.27253,-0.40548 0.3947,-1.09429 l 0.10807,0.0195 q -0.0893,0.77186 -0.40409,1.22619 -0.30072,0.43478 -0.83168,0.66438 -0.52625,0.22961 -1.22166,0.22961 -0.64843,0 -1.24047,-0.20029 -0.94444,-0.32243 -1.47539,-1.16268 -0.53096,-0.84514 -0.53096,-2.01271 0,-0.89399 0.31012,-1.64632 0.31011,-0.75721 0.86456,-1.21642 0.42759,-0.35173 1.01963,-0.55691 0.59673,-0.21006 1.19347,-0.21006 0.56855,0 1.20287,0.22472 l 0.3853,0.1319 q 0.11277,0.0439 0.19734,0.0439 0.11747,0 0.19265,-0.10259 0.0329,-0.0489 0.0799,-0.16121 z m 2.67827,3.13631 h 3.33609 v -1.56815 q 0,-0.50318 -0.0564,-0.74256 -0.0517,-0.23937 -0.19735,-0.3957 -0.13157,-0.14167 -0.30072,-0.20518 -0.16445,-0.0635 -0.43698,-0.0782 v -0.11236 h 3.00249 v 0.11236 q -0.26784,0.0147 -0.43699,0.0782 -0.16445,0.0635 -0.29602,0.20518 -0.14566,0.15633 -0.20204,0.40059 -0.0517,0.23937 -0.0517,0.73767 v 3.60039 q 0,0.4983 0.0517,0.73767 0.0564,0.23938 0.20204,0.40059 0.13157,0.13679 0.29602,0.20518 0.16915,0.0635 0.43699,0.0782 v 0.11236 h -3.00249 v -0.11236 q 0.27253,-0.0147 0.43698,-0.0782 0.16915,-0.0684 0.30072,-0.20518 0.14566,-0.15633 0.19735,-0.3957 0.0564,-0.23938 0.0564,-0.74256 v -1.80264 h -3.33609 v 1.80264 q 0,0.4983 0.0517,0.74256 0.0564,0.23937 0.20205,0.3957 0.12686,0.13679 0.29132,0.20518 0.16915,0.0635 0.44167,0.0782 v 0.11236 h -3.00248 v -0.11236 q 0.27253,-0.0147 0.43699,-0.0782 0.16915,-0.0684 0.29601,-0.20518 0.15036,-0.15633 0.20205,-0.3957 0.0517,-0.23938 0.0517,-0.74256 v -3.60039 q 0,-0.50318 -0.0517,-0.74256 -0.0517,-0.23937 -0.20205,-0.3957 -0.12686,-0.14167 -0.29601,-0.20518 -0.16916,-0.0635 -0.43699,-0.0782 v -0.11236 h 3.00248 v 0.11236 q -0.26782,0.0147 -0.43697,0.0782 -0.16446,0.0635 -0.29602,0.20518 -0.14566,0.15633 -0.20205,0.40059 -0.0517,0.23937 -0.0517,0.73767 z m 6.99169,-2.21789 v 4.25013 q 0,0.50318 0.0517,0.74256 0.0564,0.23937 0.20204,0.3957 0.13157,0.14167 0.29602,0.20518 0.16915,0.0635 0.43698,0.0782 v 0.11236 h -2.16611 v -0.11236 q 0.26783,-0.0147 0.43228,-0.0782 0.16916,-0.0635 0.30072,-0.20518 0.14566,-0.15633 0.19735,-0.3957 0.0564,-0.24426 0.0564,-0.74256 v -3.60528 q 0,-0.49341 -0.0564,-0.73278 -0.0517,-0.24426 -0.19735,-0.40059 -0.12686,-0.14167 -0.29602,-0.20518 -0.16445,-0.0635 -0.43698,-0.0782 v -0.11236 h 1.80901 l 3.81536,5.06108 v -3.52712 q 0,-0.50318 -0.0564,-0.74256 -0.0517,-0.23937 -0.19734,-0.3957 -0.13156,-0.14167 -0.30072,-0.20518 -0.16445,-0.0635 -0.43228,-0.0782 v -0.11236 h 2.16611 v 0.11236 q -0.46987,0 -0.733,0.28334 -0.14566,0.15633 -0.20205,0.40059 -0.0517,0.23937 -0.0517,0.73278 v 5.13924 h -0.21144 z m 6.31038,2.49634 q 0,-0.82071 0.33831,-1.5193 0.33831,-0.70347 0.98673,-1.22618 0.48397,-0.38594 1.04312,-0.59112 0.55915,-0.21006 1.12769,-0.21006 0.7236,0 1.40022,0.3322 0.67662,0.3273 1.18408,0.92819 0.82698,0.97704 0.82698,2.22277 0,0.6253 -0.21614,1.20665 -0.21615,0.58133 -0.62964,1.06009 -0.50745,0.59599 -1.20286,0.9233 -0.69072,0.32731 -1.44721,0.32731 -0.7471,0 -1.42842,-0.31754 -0.68131,-0.31754 -1.17467,-0.89888 -0.39,-0.45432 -0.60144,-1.03078 -0.20675,-0.58134 -0.20675,-1.20665 z m 1.1371,0.0733 q 0,1.41671 0.7424,2.38887 0.3336,0.43479 0.7048,0.63508 0.3759,0.1954 0.86456,0.1954 0.49337,0 0.86457,-0.1954 0.3759,-0.19541 0.71421,-0.63508 0.7424,-0.97704 0.7424,-2.40841 0,-0.78652 -0.20675,-1.4851 -0.20205,-0.70347 -0.57324,-1.19199 -0.30072,-0.40059 -0.67192,-0.58135 -0.3665,-0.18563 -0.86927,-0.18563 -0.49806,0 -0.86456,0.18075 -0.3618,0.18076 -0.67192,0.58623 -0.3712,0.48363 -0.57324,1.1871 -0.20204,0.70347 -0.20204,1.50953 z m 6.44664,3.21447 v -0.11724 q 0.47457,0 0.733,-0.27846 0.14566,-0.15633 0.19735,-0.3957 0.0564,-0.24426 0.0564,-0.74256 v -3.60039 q 0,-0.51784 -0.0611,-0.7621 -0.0564,-0.24914 -0.21614,-0.40547 -0.13156,-0.12702 -0.29602,-0.18564 -0.15976,-0.0586 -0.41349,-0.0684 v -0.11236 h 3.00249 v 0.11236 q -0.25844,0.0147 -0.42289,0.0733 -0.16446,0.0586 -0.29132,0.18564 -0.15976,0.16121 -0.21614,0.40547 -0.0564,0.24426 -0.0564,0.75721 v 2.81876 q 0,0.64973 0.0329,0.96727 0.0329,0.31754 0.12686,0.51784 0.16446,0.35173 0.48867,0.51783 0.32421,0.16121 0.85987,0.16121 0.55914,0 0.93974,-0.15144 0.38529,-0.15633 0.62963,-0.47875 0.16446,-0.21984 0.26783,-0.4983 0.10806,-0.27845 0.19734,-0.73277 l 0.11277,0.01 -0.0611,2.00294 z m 6.08954,-3.28775 q 0,-0.82071 0.33831,-1.5193 0.33831,-0.70347 0.98673,-1.22618 0.48397,-0.38594 1.04312,-0.59112 0.55915,-0.21006 1.12769,-0.21006 0.7236,0 1.40022,0.3322 0.67662,0.3273 1.18408,0.92819 0.82697,0.97704 0.82697,2.22277 0,0.6253 -0.21614,1.20665 -0.21614,0.58133 -0.62963,1.06009 -0.50746,0.59599 -1.20287,0.9233 -0.69071,0.32731 -1.4472,0.32731 -0.7471,0 -1.42842,-0.31754 -0.68131,-0.31754 -1.17467,-0.89888 -0.39,-0.45432 -0.60144,-1.03078 -0.20675,-0.58134 -0.20675,-1.20665 z m 1.13709,0.0733 q 0,1.41671 0.7424,2.38887 0.33361,0.43479 0.70481,0.63508 0.3759,0.1954 0.86456,0.1954 0.49337,0 0.86457,-0.1954 0.3759,-0.19541 0.71421,-0.63508 0.74239,-0.97704 0.74239,-2.40841 0,-0.78652 -0.20674,-1.4851 -0.20205,-0.70347 -0.57325,-1.19199 -0.30071,-0.40059 -0.67191,-0.58135 -0.3665,-0.18563 -0.86927,-0.18563 -0.49806,0 -0.86456,0.18075 -0.3618,0.18076 -0.67192,0.58623 -0.3712,0.48363 -0.57324,1.1871 -0.20205,0.70347 -0.20205,1.50953 z m 12.32945,-3.45384 0.0564,2.12507 -0.10806,0.01 q -0.32422,-1.08452 -0.83168,-1.61212 -0.50746,-0.53249 -1.22636,-0.53249 -0.55916,0 -0.96325,0.23938 -0.39939,0.23449 -0.74709,0.76698 -0.70481,1.0894 -0.70481,2.49145 0,0.66928 0.16915,1.26527 0.16916,0.59111 0.49337,1.04544 0.62963,0.87933 1.53648,0.87933 0.35711,0 0.67192,-0.15632 0.31481,-0.15633 0.51686,-0.4299 0.27722,-0.38104 0.27722,-0.90376 0,-0.48364 -0.25373,-0.69859 -0.24903,-0.21495 -0.82697,-0.21495 v -0.11236 h 2.99778 v 0.11236 q -0.41348,0.0391 -0.58264,0.12213 -0.16446,0.0782 -0.24434,0.27357 -0.0893,0.21495 -0.0893,0.85492 0,0.17586 0.0188,0.54714 l 0.009,0.11236 q -0.17855,-0.0684 -0.26313,-0.0684 -0.10337,0 -0.26312,0.11236 -0.4088,0.29311 -0.94915,0.44943 -0.54035,0.15633 -1.14179,0.15633 -0.82697,0 -1.49419,-0.29311 -0.66252,-0.29311 -1.076,-0.84026 -0.31012,-0.41035 -0.47928,-0.97704 -0.16445,-0.56668 -0.16445,-1.20176 0,-0.87446 0.30072,-1.62677 0.30071,-0.75233 0.84577,-1.24085 0.44638,-0.3957 1.02902,-0.61065 0.58264,-0.21495 1.23106,-0.21495 0.3759,0 0.69541,0.0733 0.32421,0.0733 0.68602,0.23938 l 0.27722,0.1319 q 0.10337,0.044 0.18795,0.044 0.18795,0 0.28662,-0.31754 z m 2.88031,6.66831 v -0.11236 q 0.26783,-0.0147 0.43698,-0.0782 0.16915,-0.0635 0.30072,-0.20518 0.14566,-0.15633 0.19735,-0.3957 0.0517,-0.23938 0.0517,-0.74256 l 0.005,-0.95261 q 0,-0.20518 -0.0799,-0.45432 -0.0893,-0.28823 -0.3665,-0.72301 l -1.21696,-1.90036 -0.21614,-0.34196 q -0.23964,-0.37127 -0.46988,-0.50806 -0.11747,-0.0733 -0.23493,-0.10259 -0.11747,-0.0293 -0.32892,-0.0391 v -0.11236 h 3.06357 v 0.11236 q -0.38999,0.0244 -0.49806,0.0733 -0.26313,0.11724 -0.26313,0.42501 0,0.11236 0.0564,0.25404 0.0611,0.14167 0.19265,0.35662 l 1.27335,2.07132 1.0901,-1.76844 0.12217,-0.20029 q 0.17385,-0.28335 0.17385,-0.55692 0,-0.31265 -0.19264,-0.48364 -0.19265,-0.17098 -0.54036,-0.17098 v -0.11236 h 2.16142 v 0.11236 q -0.24434,0.0293 -0.3759,0.0879 -0.13157,0.0537 -0.26783,0.18076 -0.31951,0.31265 -0.70951,0.93307 l -1.07131,1.70006 q -0.19264,0.30288 -0.23493,0.44455 -0.0423,0.14168 -0.0423,0.47875 v 1.19688 q 0,0.52272 0.047,0.75232 0.0517,0.22472 0.20205,0.38593 0.25843,0.28335 0.7377,0.28335 v 0.11236 z"
       id="text1337"
       aria-label="CANADIAN INSTITUTE &#10;OF TECHNOLOGY" />
  </g>
</svg>
